<?xml version="1.0" encoding="UTF-8" standalone="no"?><!DOCTYPE svg PUBLIC "-//W3C//DTD SVG 1.1//EN" "http://www.w3.org/Graphics/SVG/1.1/DTD/svg11.dtd"><svg width="302px" height="61px" version="1.1" xmlns="http://www.w3.org/2000/svg" xmlns:xlink="http://www.w3.org/1999/xlink" xml:space="preserve" xmlns:serif="http://www.serif.com/" style="fill-rule:evenodd;clip-rule:evenodd;stroke-miterlimit:10;"><g transform="matrix(1,0,0,1,-4115.85,-907.938)"><g transform="matrix(4.16667,0,0,4.16667,3946.36,0)"><g transform="matrix(0.0949601,0,0,0.0949601,37.1998,197.213)"><g transform="matrix(1,0,0,1,266.398,350.044)"><path d="M0,-37.645L6.558,-37.645C7.221,-37.645 7.553,-37.313 7.553,-36.65L7.553,-0.996C7.553,-0.332 7.221,0 6.558,0L2.928,0C2.264,0 1.933,-0.332 1.933,-0.996L1.933,-30.561L1.698,-30.561L-5.913,-9.133C-6.146,-8.508 -6.577,-8.197 -7.2,-8.197L-10.947,-8.197C-11.533,-8.197 -11.942,-8.508 -12.177,-9.133L-19.964,-30.62L-20.197,-30.62L-20.197,-0.996C-20.197,-0.605 -20.267,-0.341 -20.402,-0.206C-20.54,-0.068 -20.803,0 -21.193,0L-24.764,0C-25.429,0 -25.76,-0.332 -25.76,-0.996L-25.76,-36.65C-25.76,-37.313 -25.429,-37.645 -24.764,-37.645L-18.207,-37.645C-17.778,-37.645 -17.466,-37.43 -17.271,-37.001L-9.25,-14.403L-8.957,-14.403L-0.878,-37.001C-0.8,-37.43 -0.507,-37.645 0,-37.645" style="fill:rgb(180,180,180);fill-rule:nonzero;"/></g><g transform="matrix(1,0,0,1,302.228,312.399)"><path d="M0,37.645L-18.734,37.645C-19.399,37.645 -19.73,37.314 -19.73,36.65L-19.73,0.996C-19.73,0.332 -19.399,0 -18.734,0L0,0C0.623,0 0.937,0.332 0.937,0.996L0.937,3.982C0.937,4.646 0.623,4.977 0,4.977L-13.349,4.977C-13.817,4.977 -14.051,5.172 -14.051,5.562L-14.051,15.457C-14.051,15.847 -13.817,16.041 -13.349,16.041L-2.05,16.041C-1.347,16.041 -0.996,16.374 -0.996,17.038L-0.996,20.023C-0.996,20.687 -1.347,21.018 -2.05,21.018L-13.349,21.018C-13.817,21.018 -14.051,21.214 -14.051,21.604L-14.051,32.025C-14.051,32.455 -13.817,32.668 -13.349,32.668L0,32.668C0.623,32.668 0.937,33 0.937,33.664L0.937,36.65C0.937,37.314 0.623,37.645 0,37.645" style="fill:rgb(180,180,180);fill-rule:nonzero;"/></g><g transform="matrix(1,0,0,1,320.903,312.399)"><path d="M0,37.645L-3.688,37.645C-4.392,37.645 -4.742,37.314 -4.742,36.65L-4.742,5.562C-4.742,5.172 -4.938,4.977 -5.328,4.977L-12.705,4.977C-13.407,4.977 -13.759,4.646 -13.759,3.982L-13.759,0.996C-13.759,0.332 -13.407,0 -12.705,0L9.016,0C9.718,0 10.069,0.332 10.069,0.996L10.069,3.982C10.069,4.646 9.718,4.977 9.016,4.977L1.639,4.977C1.209,4.977 0.995,5.172 0.995,5.562L0.995,36.65C0.995,37.314 0.663,37.645 0,37.645" style="fill:rgb(180,180,180);fill-rule:nonzero;"/></g><g transform="matrix(1,0,0,1,347.657,344.424)"><path d="M0,-26.404L-5.151,-7.67L5.445,-7.67L0.234,-26.404L0,-26.404ZM-9.601,5.62L-13.816,5.62C-14.363,5.62 -14.558,5.289 -14.401,4.625L-4.215,-31.029C-4.02,-31.692 -3.552,-32.024 -2.81,-32.024L3.045,-32.024C3.825,-32.024 4.293,-31.692 4.45,-31.029L14.637,4.625C14.792,5.289 14.578,5.62 13.993,5.62L9.836,5.62C9.484,5.62 9.24,5.553 9.104,5.415C8.967,5.28 8.86,5.016 8.782,4.625L6.558,-2.986L-6.322,-2.986L-8.547,4.625C-8.703,5.289 -9.055,5.62 -9.601,5.62" style="fill:rgb(180,180,180);fill-rule:nonzero;"/></g><g transform="matrix(1,0,0,1,388.053,312.399)"><path d="M0,37.645L-18.968,37.645C-19.633,37.645 -19.964,37.314 -19.964,36.65L-19.964,0.996C-19.964,0.332 -19.633,0 -18.968,0L-15.28,0C-14.616,0 -14.284,0.332 -14.284,0.996L-14.284,31.966C-14.284,32.357 -14.051,32.551 -13.582,32.551L0,32.551C0.663,32.551 0.996,32.903 0.996,33.605L0.996,36.65C0.996,37.314 0.663,37.645 0,37.645" style="fill:rgb(180,180,180);fill-rule:nonzero;"/></g><g transform="matrix(1,0,0,1,399.059,312.399)"><path d="M0,37.645L-3.629,37.645C-4.294,37.645 -4.625,37.314 -4.625,36.65L-4.625,0.996C-4.625,0.332 -4.294,0 -3.629,0L-0.351,0C0.273,0 0.703,0.215 0.937,0.644L15.105,26.112L15.339,26.112L15.339,0.996C15.339,0.332 15.67,0 16.335,0L19.964,0C20.628,0 20.96,0.332 20.96,0.996L20.96,36.65C20.96,37.314 20.628,37.645 19.964,37.645L16.803,37.645C16.178,37.645 15.67,37.333 15.28,36.708L1.229,11.534L0.996,11.534L0.996,36.65C0.996,37.314 0.664,37.645 0,37.645" style="fill:rgb(180,180,180);fill-rule:nonzero;"/></g><g transform="matrix(1,0,0,1,440.216,344.424)"><path d="M0,-26.404L-5.151,-7.67L5.445,-7.67L0.234,-26.404L0,-26.404ZM-9.601,5.62L-13.816,5.62C-14.363,5.62 -14.558,5.289 -14.401,4.625L-4.215,-31.029C-4.02,-31.692 -3.552,-32.024 -2.81,-32.024L3.045,-32.024C3.825,-32.024 4.293,-31.692 4.45,-31.029L14.637,4.625C14.792,5.289 14.578,5.62 13.993,5.62L9.836,5.62C9.484,5.62 9.24,5.553 9.104,5.415C8.967,5.28 8.86,5.016 8.782,4.625L6.558,-2.986L-6.322,-2.986L-8.547,4.625C-8.703,5.289 -9.055,5.62 -9.601,5.62" style="fill:rgb(180,180,180);fill-rule:nonzero;"/></g><g transform="matrix(1,0,0,1,480.903,330.841)"><path d="M0,0.762L7.786,0.762C10.558,0.762 11.943,-0.681 11.943,-3.571L11.943,-9.133C11.943,-12.02 10.558,-13.465 7.786,-13.465L0,-13.465C-0.43,-13.465 -0.644,-13.269 -0.644,-12.88L-0.644,0.176C-0.644,0.567 -0.43,0.762 0,0.762M-1.64,19.203L-5.327,19.203C-5.992,19.203 -6.323,18.872 -6.323,18.208L-6.323,-17.446C-6.323,-18.109 -5.992,-18.441 -5.327,-18.441L8.606,-18.441C11.455,-18.441 13.68,-17.651 15.28,-16.07C16.88,-14.489 17.681,-12.255 17.681,-9.367L17.681,-3.278C17.681,-0.428 16.88,1.796 15.28,3.396C13.68,4.997 11.455,5.796 8.606,5.796L0.059,5.796C-0.41,5.796 -0.644,5.992 -0.644,6.382L-0.644,18.208C-0.644,18.872 -0.976,19.203 -1.64,19.203" style="fill:rgb(180,180,180);fill-rule:nonzero;"/></g><g transform="matrix(1,0,0,1,511.816,331.544)"><path d="M0,-0.645L7.436,-0.645C10.323,-0.645 11.768,-2.069 11.768,-4.918L11.768,-9.836C11.768,-12.724 10.323,-14.168 7.436,-14.168L0,-14.168C-0.43,-14.168 -0.644,-13.973 -0.644,-13.583L-0.644,-1.23C-0.644,-0.839 -0.43,-0.645 0,-0.645M-1.64,18.5L-5.327,18.5C-5.992,18.5 -6.323,18.168 -6.323,17.504L-6.323,-18.15C-6.323,-18.813 -5.992,-19.145 -5.327,-19.145L8.372,-19.145C11.221,-19.145 13.455,-18.334 15.075,-16.715C16.694,-15.095 17.505,-12.861 17.505,-10.012L17.505,-5.094C17.505,-0.605 15.65,2.224 11.943,3.395L11.943,3.629L18.441,17.329C18.871,18.11 18.617,18.5 17.681,18.5L14.051,18.5C13.114,18.5 12.509,18.168 12.236,17.504L5.972,4.039L0.059,4.039C-0.41,4.039 -0.644,4.235 -0.644,4.625L-0.644,17.504C-0.644,18.168 -0.976,18.5 -1.64,18.5" style="fill:rgb(180,180,180);fill-rule:nonzero;"/></g><g transform="matrix(1,0,0,1,546.532,317.376)"><path d="M0,27.691L5.094,27.691C7.942,27.691 9.367,26.248 9.367,23.359L9.367,4.332C9.367,1.444 7.942,0 5.094,0L0,0C-2.81,0 -4.215,1.444 -4.215,4.332L-4.215,23.359C-4.215,26.248 -2.81,27.691 0,27.691M5.972,32.668L-0.819,32.668C-3.708,32.668 -5.942,31.868 -7.522,30.267C-9.104,28.668 -9.894,26.443 -9.894,23.593L-9.894,4.097C-9.894,1.21 -9.104,-1.025 -7.522,-2.606C-5.942,-4.187 -3.708,-4.977 -0.819,-4.977L5.972,-4.977C8.86,-4.977 11.104,-4.187 12.705,-2.606C14.305,-1.025 15.105,1.21 15.105,4.097L15.105,23.593C15.105,26.443 14.305,28.668 12.705,30.267C11.104,31.868 8.86,32.668 5.972,32.668" style="fill:rgb(180,180,180);fill-rule:nonzero;"/></g><g transform="matrix(1,0,0,1,575.511,349.049)"><path d="M0,-35.654L0,-0C0,0.664 -0.332,0.995 -0.995,0.995L-4.684,0.995C-5.348,0.995 -5.679,0.664 -5.679,-0L-5.679,-35.654C-5.679,-36.317 -5.348,-36.649 -4.684,-36.649L-0.995,-36.649C-0.332,-36.649 0,-36.317 0,-35.654" style="fill:rgb(180,180,180);fill-rule:nonzero;"/></g><g transform="matrix(1,0,0,1,582.771,313.395)"><path d="M0,35.654L0,32.902C0,31.887 0.176,31.166 0.526,30.736L17.446,4.566L17.446,4.333L1.932,4.333C1.229,4.333 0.878,4.001 0.878,3.337L0.878,0C0.878,-0.663 1.229,-0.995 1.932,-0.995L22.656,-0.995C23.32,-0.995 23.652,-0.663 23.652,0L23.652,3.864C23.652,4.722 23.437,5.484 23.008,6.147L6.732,31.088L6.732,31.322L23.242,31.322C23.905,31.322 24.237,31.634 24.237,32.258L24.237,35.537C24.237,36.279 23.905,36.649 23.242,36.649L0.995,36.649C0.331,36.649 0,36.318 0,35.654" style="fill:rgb(180,180,180);fill-rule:nonzero;"/></g><g transform="matrix(1,0,0,1,627.675,312.399)"><path d="M0,37.645L-5.796,37.645C-6.46,37.645 -6.87,37.314 -7.025,36.65L-16.744,1.113C-16.979,0.372 -16.686,0 -15.866,0L-11.709,0C-11.085,0 -10.714,0.332 -10.597,0.996L-3.045,31.556L-2.811,31.556L4.684,0.996C4.839,0.332 5.229,0 5.854,0L9.952,0C10.772,0 11.084,0.372 10.889,1.113L1.112,36.65C0.956,37.314 0.585,37.645 0,37.645" style="fill:rgb(180,180,180);fill-rule:nonzero;"/></g><g transform="matrix(1,0,0,1,653.316,317.376)"><path d="M0,27.691L5.094,27.691C7.942,27.691 9.367,26.248 9.367,23.359L9.367,4.332C9.367,1.444 7.942,0 5.094,0L0,0C-2.81,0 -4.215,1.444 -4.215,4.332L-4.215,23.359C-4.215,26.248 -2.81,27.691 0,27.691M5.972,32.668L-0.819,32.668C-3.708,32.668 -5.942,31.868 -7.522,30.267C-9.104,28.668 -9.894,26.443 -9.894,23.593L-9.894,4.097C-9.894,1.21 -9.104,-1.025 -7.522,-2.606C-5.942,-4.187 -3.708,-4.977 -0.819,-4.977L5.972,-4.977C8.86,-4.977 11.104,-4.187 12.705,-2.606C14.305,-1.025 15.105,1.21 15.105,4.097L15.105,23.593C15.105,26.443 14.305,28.668 12.705,30.267C11.104,31.868 8.86,32.668 5.972,32.668" style="fill:rgb(180,180,180);fill-rule:nonzero;"/></g><g transform="matrix(1,0,0,1,682.647,317.376)"><path d="M0,27.691L8.255,27.691C11.065,27.691 12.47,26.248 12.47,23.359L12.47,4.332C12.47,1.444 11.065,0 8.255,0L0,0C-0.43,0 -0.644,0.195 -0.644,0.585L-0.644,27.047C-0.644,27.477 -0.43,27.691 0,27.691M-6.323,31.672L-6.323,-3.982C-6.323,-4.645 -5.992,-4.977 -5.327,-4.977L9.074,-4.977C11.923,-4.977 14.158,-4.187 15.778,-2.606C17.397,-1.025 18.207,1.21 18.207,4.097L18.207,23.593C18.207,26.443 17.397,28.668 15.778,30.267C14.158,31.868 11.923,32.668 9.074,32.668L-5.327,32.668C-5.992,32.668 -6.323,32.337 -6.323,31.672" style="fill:rgb(180,180,180);fill-rule:nonzero;"/></g><g transform="matrix(1,0,0,1,713.441,312.399)"><path d="M0,37.645L-3.629,37.645C-4.294,37.645 -4.625,37.314 -4.625,36.65L-4.625,0.996C-4.625,0.332 -4.294,0 -3.629,0L-0.351,0C0.273,0 0.703,0.215 0.937,0.644L15.105,26.112L15.339,26.112L15.339,0.996C15.339,0.332 15.67,0 16.335,0L19.964,0C20.628,0 20.96,0.332 20.96,0.996L20.96,36.65C20.96,37.314 20.628,37.645 19.964,37.645L16.803,37.645C16.178,37.645 15.67,37.333 15.28,36.708L1.229,11.534L0.996,11.534L0.996,36.65C0.996,37.314 0.664,37.645 0,37.645" style="fill:rgb(180,180,180);fill-rule:nonzero;"/></g><g transform="matrix(1,0,0,1,760.042,350.044)"><path d="M0,-37.645L3.688,-37.645C4.352,-37.645 4.684,-37.333 4.684,-36.708L4.684,-9.075C4.684,-6.225 3.883,-4 2.283,-2.401C0.683,-0.8 -1.542,0 -4.391,0L-10.245,0C-13.135,0 -15.378,-0.8 -16.979,-2.401C-18.579,-4 -19.379,-6.225 -19.379,-9.075L-19.379,-14.344C-19.379,-15.007 -19.027,-15.339 -18.325,-15.339L-14.637,-15.339C-13.974,-15.339 -13.642,-15.007 -13.642,-14.344L-13.642,-9.309C-13.642,-6.42 -12.236,-4.977 -9.426,-4.977L-5.27,-4.977C-2.459,-4.977 -1.054,-6.42 -1.054,-9.309L-1.054,-36.65C-1.054,-37.313 -0.703,-37.645 0,-37.645" style="fill:rgb(180,180,180);fill-rule:nonzero;"/></g><g transform="matrix(1,0,0,1,784.63,344.424)"><path d="M0,-26.404L-5.151,-7.67L5.445,-7.67L0.234,-26.404L0,-26.404ZM-9.601,5.62L-13.816,5.62C-14.363,5.62 -14.558,5.289 -14.401,4.625L-4.215,-31.029C-4.02,-31.692 -3.552,-32.024 -2.81,-32.024L3.045,-32.024C3.825,-32.024 4.293,-31.692 4.45,-31.029L14.637,4.625C14.792,5.289 14.578,5.62 13.993,5.62L9.836,5.62C9.484,5.62 9.24,5.553 9.104,5.415C8.967,5.28 8.86,5.016 8.782,4.625L6.558,-2.986L-6.322,-2.986L-8.547,4.625C-8.703,5.289 -9.055,5.62 -9.601,5.62" style="fill:rgb(180,180,180);fill-rule:nonzero;"/></g><g transform="matrix(1,0,0,1,182.197,355.536)"><path d="M0,-60.422C-0.199,-59.518 -0.791,-58.727 -1.622,-58.268L-13.235,-51.853C-15.077,-50.836 -15.516,-48.376 -14.133,-46.794L-6.282,-37.793C-5.425,-36.809 -5.225,-35.42 -5.771,-34.236C-8.25,-28.825 -11.454,-23.819 -15.257,-19.339C-16.034,-18.421 -17.244,-17.989 -18.428,-18.221L-29.384,-20.369C-31.451,-20.774 -33.365,-19.172 -33.325,-17.064L-33.126,-6.68C-33.1,-5.418 -33.798,-4.255 -34.921,-3.669C-40.359,-0.857 -46.249,1.203 -52.451,2.373C-53.661,2.6 -54.892,2.155 -55.662,1.203L-61.991,-6.634C-63.314,-8.269 -65.807,-8.269 -67.13,-6.634L-73.459,1.203C-74.224,2.155 -75.46,2.6 -76.663,2.373C-82.865,1.203 -88.756,-0.857 -94.193,-3.669C-95.317,-4.255 -96.015,-5.418 -95.995,-6.68L-95.796,-17.064C-95.756,-19.172 -97.664,-20.774 -99.731,-20.369L-110.7,-18.221C-111.877,-17.989 -113.087,-18.421 -113.864,-19.339C-117.674,-23.819 -120.871,-28.825 -123.352,-34.236C-123.85,-35.326 -123.717,-36.596 -123.019,-37.56C-122.002,-37.148 -120.932,-36.848 -119.834,-36.675C-118.033,-36.39 -116.191,-36.45 -114.416,-36.709C-112.635,-36.975 -110.906,-37.447 -109.231,-38.012C-107.563,-38.584 -105.921,-39.222 -104.332,-39.933C-101.127,-41.336 -98.043,-42.898 -94.965,-44.44C-93.774,-45.039 -92.592,-45.637 -91.408,-46.229C-86.17,-36.796 -76.111,-30.421 -64.558,-30.421C-47.605,-30.421 -33.857,-44.168 -33.857,-61.127C-33.857,-61.705 -33.871,-62.277 -33.904,-62.849C-31.764,-62.955 -29.616,-63.022 -27.476,-63.008C-18.262,-63.008 -9.074,-62.071 0,-60.422" style="fill:rgb(180,180,180);fill-rule:nonzero;"/></g><g transform="matrix(1,0,0,1,89.1935,315.009)"><path d="M0,-9.026C-1.203,-8.322 -2.399,-7.617 -3.596,-6.913C-6.555,-5.171 -9.499,-3.429 -12.498,-1.867C-14,-1.083 -15.522,-0.364 -17.064,0.274C-18.601,0.919 -20.176,1.457 -21.778,1.803C-23.38,2.149 -25.009,2.301 -26.618,2.156C-27.409,2.089 -28.187,1.943 -28.951,1.73L-24.989,-2.817C-23.786,-2.771 -22.582,-2.85 -21.412,-3.023C-19.631,-3.29 -17.902,-3.761 -16.228,-4.327C-14.559,-4.898 -12.917,-5.537 -11.328,-6.248C-8.123,-7.65 -5.039,-9.213 -1.961,-10.755C-1.582,-10.948 -1.21,-11.133 -0.831,-11.327C-0.585,-10.542 -0.312,-9.778 0,-9.026" style="fill:rgb(180,180,180);fill-rule:nonzero;"/></g><g transform="matrix(1,0,0,1,180.13,262.067)"><path d="M0,15.875C-8.529,15.077 -17.125,14.877 -25.687,15.443C-29.197,15.655 -32.694,16.054 -36.178,16.526C-41.549,7.605 -51.321,1.642 -62.49,1.642C-79.448,1.642 -93.196,15.39 -93.196,32.342C-93.196,34.303 -93.011,36.224 -92.658,38.085C-93.283,38.451 -93.908,38.823 -94.532,39.189C-97.491,40.931 -100.436,42.673 -103.435,44.234C-104.937,45.02 -106.459,45.737 -108.001,46.375C-109.537,47.021 -111.112,47.559 -112.715,47.904C-113.213,48.011 -113.719,48.104 -114.217,48.164L-112.921,46.675C-111.538,45.093 -111.97,42.633 -113.812,41.615L-125.438,35.193C-126.469,34.622 -127.127,33.538 -127.127,32.362L-127.127,32.342C-127.127,26.764 -126.423,21.346 -125.086,16.187C-124.761,14.911 -123.703,13.954 -122.4,13.748L-108.514,11.567C-106.439,11.241 -105.189,9.081 -105.947,7.12L-111.458,-7.16C-111.903,-8.323 -111.664,-9.633 -110.84,-10.557C-107.529,-14.287 -103.793,-17.624 -99.711,-20.502C-98.635,-21.26 -97.219,-21.313 -96.088,-20.635L-82.573,-12.492C-80.771,-11.401 -78.432,-12.259 -77.747,-14.247L-72.462,-29.67C-72.043,-30.88 -70.973,-31.744 -69.696,-31.89C-67.329,-32.156 -64.93,-32.289 -62.49,-32.289C-60.057,-32.289 -57.657,-32.156 -55.29,-31.89C-54.021,-31.75 -52.943,-30.886 -52.524,-29.676L-47.239,-14.247C-47.066,-13.748 -46.794,-13.323 -46.448,-12.977C-46.315,-12.844 -46.163,-12.725 -46.01,-12.618C-45.937,-12.565 -45.856,-12.512 -45.777,-12.465C-45.398,-12.246 -44.986,-12.1 -44.554,-12.046C-43.843,-11.947 -43.085,-12.08 -42.413,-12.492L-28.898,-20.635C-27.768,-21.313 -26.352,-21.26 -25.275,-20.509C-21.193,-17.624 -17.464,-14.287 -14.153,-10.557C-13.329,-9.633 -13.083,-8.323 -13.528,-7.16L-19.039,7.12C-19.797,9.081 -18.554,11.241 -16.474,11.567L-2.593,13.748C-1.396,13.934 -0.405,14.758 0,15.875" style="fill:rgb(180,180,180);fill-rule:nonzero;"/></g><g transform="matrix(1,0,0,1,224.789,277.731)"><path d="M0,16.142C-12.389,7.217 -27.1,-6.247 -35.159,-18.431L-33.6,1.58C-45.729,-0.274 -58.067,-1.035 -70.348,-0.223C-73.879,-0.009 -77.398,0.399 -80.9,0.872C-84.399,1.39 -87.877,2.03 -91.323,2.799C-98.204,4.386 -104.951,6.493 -111.444,9.151C-117.947,11.787 -124.199,14.931 -130.237,18.331C-133.26,20.027 -136.233,21.783 -139.191,23.528C-142.151,25.265 -145.094,27.008 -148.096,28.568C-149.594,29.358 -151.115,30.073 -152.657,30.714C-154.199,31.356 -155.772,31.897 -157.374,32.24C-158.973,32.587 -160.603,32.742 -162.212,32.595C-163.821,32.454 -165.401,32.001 -166.873,31.275C-169.84,29.826 -172.307,27.381 -174.427,24.733C-176.561,22.072 -178.38,19.143 -180.051,16.142C-178.581,19.248 -176.958,22.298 -174.973,25.141C-172.995,27.967 -170.643,30.675 -167.516,32.478C-165.964,33.377 -164.226,34.008 -162.425,34.288C-160.623,34.573 -158.785,34.517 -157.008,34.252C-155.225,33.992 -153.498,33.52 -151.826,32.953C-150.153,32.383 -148.515,31.74 -146.921,31.03C-143.722,29.627 -140.636,28.064 -137.558,26.521C-134.485,24.973 -131.43,23.431 -128.352,21.962C-122.203,19.017 -115.954,16.383 -109.557,14.27C-103.167,12.135 -96.627,10.564 -90.025,9.495C-86.72,8.984 -83.399,8.598 -80.071,8.328C-76.738,8.103 -73.405,7.936 -70.066,7.956C-58.805,7.959 -47.576,9.358 -36.546,11.737L-47.917,27.788C-34.749,21.463 -15.214,17.453 0,16.142Z" style="fill:rgb(22,90,143);fill-rule:nonzero;stroke:white;stroke-width:1.62px;"/></g><g transform="matrix(1,0,0,1,224.789,284.57)"><path d="M0,16.144C-12.389,7.218 -27.1,-6.246 -35.159,-18.43L-33.6,1.581C-45.729,-0.273 -58.067,-1.033 -70.348,-0.221C-73.879,-0.007 -77.398,0.401 -80.9,0.873C-84.399,1.391 -87.877,2.032 -91.323,2.8C-98.204,4.387 -104.951,6.495 -111.444,9.153C-117.947,11.789 -124.199,14.933 -130.237,18.332C-133.26,20.029 -136.233,21.785 -139.191,23.53C-142.151,25.267 -145.094,27.01 -148.096,28.57C-149.594,29.36 -151.115,30.074 -152.657,30.716C-154.199,31.357 -155.772,31.898 -157.374,32.241C-158.973,32.588 -160.603,32.743 -162.212,32.597C-163.821,32.456 -165.401,32.003 -166.873,31.277C-169.84,29.828 -172.307,27.382 -174.427,24.735C-176.561,22.074 -178.38,19.145 -180.051,16.144C-178.581,19.249 -176.958,22.3 -174.973,25.143C-172.995,27.968 -170.643,30.676 -167.516,32.48C-165.964,33.379 -164.226,34.01 -162.425,34.289C-160.623,34.574 -158.785,34.519 -157.008,34.254C-155.225,33.994 -153.498,33.522 -151.826,32.954C-150.153,32.384 -148.515,31.741 -146.921,31.032C-143.722,29.628 -140.636,28.065 -137.558,26.523C-134.485,24.974 -131.43,23.433 -128.352,21.964C-122.203,19.019 -115.954,16.384 -109.557,14.272C-103.167,12.137 -96.627,10.566 -90.025,9.496C-86.72,8.986 -83.399,8.6 -80.071,8.33C-76.738,8.104 -73.405,7.938 -70.066,7.958C-58.805,7.961 -47.576,9.36 -36.546,11.739L-47.917,27.79C-34.749,21.465 -15.214,17.455 0,16.144Z" style="fill:rgb(0,135,194);fill-rule:nonzero;stroke:white;stroke-width:1.62px;"/></g><g transform="matrix(1,0,0,1,178.588,367.994)"><path d="M0,-28.174C-13.928,-9.533 -36.158,2.553 -61.16,2.553C-85.831,2.553 -107.802,-9.221 -121.763,-27.436C-119.213,-28.552 -117.348,-29.557 -114.77,-30.727C-102.151,-15.044 -82.813,-4.986 -61.16,-4.986C-40.24,-4.986 -21.473,-14.379 -8.849,-29.164C-5.841,-28.737 -2.973,-28.366 0,-28.174" style="fill:rgb(0,135,194);fill-rule:nonzero;"/></g><g transform="matrix(1,0,0,1,123.843,289.709)"><path d="M0,-63.966C0,-63.966 -4.255,-64.265 -6.415,-64.265C-44.342,-64.265 -75.201,-33.406 -75.201,4.52C-75.201,5.631 -75.115,7.838 -75.115,7.838C-75.115,7.838 -79.889,6.515 -82.713,5.717C-82.72,5.318 -82.74,4.919 -82.74,4.52C-82.74,-37.568 -48.503,-71.804 -6.415,-71.804C-5.484,-71.804 -4.561,-71.784 -3.644,-71.751C-2.55,-69.084 0,-63.966 0,-63.966" style="fill:rgb(0,135,194);fill-rule:nonzero;"/></g><g transform="matrix(1,0,0,1,296.658,244.567)"><path d="M0,24.143C0,26.243 -0.266,28.131 -0.798,29.81C-1.33,31.487 -2.032,32.966 -2.905,34.249C-3.778,35.532 -4.802,36.622 -5.974,37.522C-7.147,38.423 -8.361,39.158 -9.615,39.732C-10.87,40.305 -12.146,40.728 -13.441,41.001C-14.737,41.274 -15.957,41.41 -17.104,41.41L-58.145,41.41L-58.145,30.77L-17.104,30.77C-15.058,30.77 -13.469,30.171 -12.337,28.97C-11.205,27.77 -10.639,26.161 -10.639,24.143C-10.639,23.16 -10.788,22.259 -11.088,21.442C-11.389,20.623 -11.818,19.915 -12.378,19.314C-12.938,18.714 -13.619,18.251 -14.423,17.923C-15.229,17.596 -16.121,17.432 -17.104,17.432L-41.572,17.432C-43.29,17.432 -45.146,17.124 -47.137,16.511C-49.128,15.897 -50.978,14.91 -52.681,13.545C-54.387,12.18 -55.806,10.394 -56.937,8.184C-58.069,5.976 -58.635,3.275 -58.635,0.083C-58.635,-3.108 -58.069,-5.803 -56.937,-7.999C-55.806,-10.194 -54.387,-11.981 -52.681,-13.359C-50.978,-14.736 -49.128,-15.732 -47.137,-16.346C-45.146,-16.959 -43.29,-17.267 -41.572,-17.267L-5.36,-17.267L-5.36,-6.628L-41.572,-6.628C-43.591,-6.628 -45.166,-6.014 -46.298,-4.787C-47.431,-3.559 -47.996,-1.936 -47.996,0.083C-47.996,2.128 -47.431,3.745 -46.298,4.931C-45.166,6.118 -43.591,6.711 -41.572,6.711L-17.021,6.711C-15.876,6.739 -14.662,6.895 -13.38,7.183C-12.098,7.468 -10.822,7.913 -9.554,8.512C-8.285,9.112 -7.079,9.869 -5.933,10.783C-4.787,11.697 -3.771,12.795 -2.885,14.077C-1.998,15.359 -1.296,16.832 -0.777,18.495C-0.26,20.16 0,22.041 0,24.143" style="fill:rgb(245,245,245);fill-rule:nonzero;"/></g><g transform="matrix(1,0,0,1,357.912,275.337)"><path d="M0,-37.398L-23.446,-37.398L-23.446,10.639L-34.084,10.639L-34.084,-37.398L-57.571,-37.398L-57.571,-48.037L0,-48.037L0,-37.398Z" style="fill:rgb(245,245,245);fill-rule:nonzero;"/></g><g transform="matrix(1,0,0,1,0,-81.999)"><path d="M413.969,343.998L380.376,343.998L380.376,333.277L413.969,333.277L413.969,343.998ZM418.757,367.976L380.376,367.976C378.902,367.976 377.293,367.717 375.548,367.198C373.802,366.68 372.186,365.827 370.699,364.641C369.212,363.454 367.971,361.913 366.976,360.017C365.98,358.122 365.483,355.796 365.483,353.04L365.483,314.66C365.483,313.923 365.618,313.227 365.891,312.573C366.164,311.918 366.539,311.345 367.017,310.854C367.493,310.364 368.06,309.982 368.715,309.709C369.369,309.436 370.078,309.299 370.842,309.299L418.757,309.299L418.757,319.938L376.12,319.938L376.12,353.04C376.12,354.432 376.489,355.495 377.226,356.232C377.962,356.969 379.039,357.336 380.458,357.336L418.757,357.336L418.757,367.976Z" style="fill:rgb(245,245,245);fill-rule:nonzero;"/></g><g transform="matrix(1,0,0,1,0,-81.999)"><path d="M477.27,343.998L443.677,343.998L443.677,333.277L477.27,333.277L477.27,343.998ZM482.056,367.976L443.677,367.976C442.203,367.976 440.594,367.717 438.846,367.198C437.101,366.68 435.486,365.827 433.999,364.641C432.511,363.454 431.271,361.913 430.277,360.017C429.279,358.122 428.781,355.796 428.781,353.04L428.781,314.66C428.781,313.923 428.917,313.227 429.192,312.573C429.462,311.918 429.838,311.345 430.318,310.854C430.794,310.364 431.359,309.982 432.015,309.709C432.668,309.436 433.378,309.299 434.142,309.299L482.056,309.299L482.056,319.938L439.42,319.938L439.42,353.04C439.42,354.432 439.789,355.495 440.525,356.232C441.263,356.969 442.339,357.336 443.759,357.336L482.056,357.336L482.056,367.976Z" style="fill:rgb(245,245,245);fill-rule:nonzero;"/></g><g transform="matrix(1,0,0,1,546.216,227.301)"><path d="M0,58.676L-48.529,58.676C-49.293,58.676 -50.001,58.54 -50.656,58.267C-51.311,57.994 -51.879,57.619 -52.355,57.141C-52.833,56.664 -53.207,56.098 -53.48,55.444C-53.753,54.789 -53.891,54.08 -53.891,53.315L-53.891,0L-43.251,0L-43.251,48.037L0,48.037L0,58.676Z" style="fill:rgb(245,245,245);fill-rule:nonzero;"/></g><g transform="matrix(1,0,0,1,598.713,275.337)"><path d="M0,-37.398L-23.446,-37.398L-23.446,10.639L-34.085,10.639L-34.085,-37.398L-57.572,-37.398L-57.572,-48.037L0,-48.037L0,-37.398Z" style="fill:rgb(245,245,245);fill-rule:nonzero;"/></g><g transform="matrix(1,0,0,1,0,-81.999)"><path d="M654.769,343.998L621.176,343.998L621.176,333.277L654.769,333.277L654.769,343.998ZM659.557,367.976L621.176,367.976C619.702,367.976 618.093,367.717 616.347,367.198C614.602,366.68 612.985,365.827 611.499,364.641C610.012,363.454 608.772,361.913 607.776,360.017C606.778,358.122 606.282,355.796 606.282,353.04L606.282,314.66C606.282,313.923 606.418,313.227 606.691,312.573C606.964,311.918 607.339,311.345 607.817,310.854C608.293,310.364 608.859,309.982 609.515,309.709C610.169,309.436 610.877,309.299 611.643,309.299L659.557,309.299L659.557,319.938L616.92,319.938L616.92,353.04C616.92,354.432 617.289,355.495 618.026,356.232C618.762,356.969 619.84,357.336 621.258,357.336L659.557,357.336L659.557,367.976Z" style="fill:rgb(245,245,245);fill-rule:nonzero;"/></g><g transform="matrix(1,0,0,1,721.997,227.301)"><path d="M0,58.676L-38.381,58.676C-39.363,58.676 -40.421,58.561 -41.552,58.329C-42.685,58.097 -43.803,57.734 -44.907,57.243C-46.013,56.753 -47.07,56.119 -48.078,55.341C-49.088,54.563 -49.98,53.623 -50.759,52.517C-51.536,51.413 -52.158,50.132 -52.62,48.671C-53.085,47.213 -53.315,45.57 -53.315,43.741L-53.315,14.934C-53.315,13.953 -53.2,12.896 -52.969,11.763C-52.736,10.633 -52.376,9.514 -51.885,8.408C-51.393,7.304 -50.752,6.247 -49.96,5.237C-49.17,4.229 -48.222,3.335 -47.117,2.557C-46.013,1.78 -44.737,1.159 -43.292,0.695C-41.845,0.232 -40.209,0 -38.381,0L0,0L0,10.639L-38.381,10.639C-39.772,10.639 -40.837,11.006 -41.572,11.743C-42.309,12.48 -42.678,13.572 -42.678,15.016L-42.678,43.741C-42.678,45.106 -42.303,46.162 -41.552,46.912C-40.803,47.663 -39.745,48.037 -38.381,48.037L0,48.037L0,58.676Z" style="fill:rgb(245,245,245);fill-rule:nonzero;"/></g><g transform="matrix(1,0,0,1,742.783,261.999)"><path d="M0,-10.721L37.357,-10.721L37.357,-34.699L47.996,-34.699L47.996,23.978L37.357,23.978L37.357,-0L0,-0L0,23.978L-10.639,23.978L-10.639,-34.699L0,-34.699L0,-10.721Z" style="fill:rgb(245,245,245);fill-rule:nonzero;"/></g></g></g></g></svg>