<svg xmlns="http://www.w3.org/2000/svg" viewBox="0 0 48 48"><g stroke-linecap="round" fill="currentColor" stroke-linejoin="round" class="nc-icon-wrapper"><path data-color="color-2" data-stroke="none" fill="currentColor" d="M20.071,30.645c0,0.878-0.259,1.556-0.776,2.033 c-0.518,0.479-1.252,0.717-2.205,0.717h-0.596V36h-2.122v-7.853h2.718c0.992,0,1.737,0.217,2.234,0.649 C19.822,29.23,20.071,29.847,20.071,30.645z M16.494,31.666h0.387c0.319,0,0.572-0.09,0.76-0.27c0.188-0.179,0.282-0.426,0.282-0.74 c0-0.53-0.293-0.795-0.881-0.795h-0.548V31.666z" stroke="none"></path> <path data-color="color-2" data-stroke="none" fill="currentColor" d="M27.988,31.907c0,1.311-0.361,2.32-1.083,3.029C26.184,35.646,25.17,36,23.863,36 h-2.541v-7.853h2.718c1.26,0,2.233,0.322,2.919,0.967C27.645,29.759,27.988,30.689,27.988,31.907z M25.786,31.982 c0-0.72-0.142-1.253-0.427-1.601c-0.284-0.348-0.717-0.521-1.297-0.521h-0.618v4.398h0.473c0.645,0,1.117-0.188,1.418-0.562 S25.786,32.752,25.786,31.982z" stroke="none"></path> <path data-color="color-2" data-stroke="none" fill="currentColor" d="M31.484,36h-2.089v-7.853h4.641v1.702h-2.551v1.499h2.353v1.702h-2.353V36z" stroke="none"></path> <polyline data-cap="butt" fill="none" stroke="currentColor" points="29,2 29,14 41,14 "></polyline> <polyline fill="none" stroke="currentColor" points="41,23 41,14 29,2 7,2 7,23 "></polyline> <polyline fill="none" stroke="currentColor" points="7,41 7,46 41,46 41,41 "></polyline> <rect x="2" y="23" fill="none" stroke="currentColor" width="44" height="18"></rect></g></svg>